<mxfile host="Electron" modified="2024-03-15T20:12:22.024Z" agent="Mozilla/5.0 (Windows NT 10.0; Win64; x64) AppleWebKit/537.36 (KHTML, like Gecko) draw.io/24.0.4 Chrome/120.0.6099.109 Electron/28.1.0 Safari/537.36" etag="oT87nw9HR2tdIS8VkLOp" version="24.0.4" type="device">
  <diagram name="Page-1" id="gSV5Xs1L_pmgMZNN862s">
    <mxGraphModel dx="1464" dy="1196" grid="1" gridSize="10" guides="1" tooltips="1" connect="1" arrows="1" fold="1" page="1" pageScale="1" pageWidth="850" pageHeight="1100" math="0" shadow="0">
      <root>
        <mxCell id="0" />
        <mxCell id="1" parent="0" />
        <mxCell id="bJrBHo3MrXm5wbYHnK7C-56" style="edgeStyle=orthogonalEdgeStyle;rounded=0;orthogonalLoop=1;jettySize=auto;html=1;entryX=0.5;entryY=0;entryDx=0;entryDy=0;" edge="1" parent="1" source="bJrBHo3MrXm5wbYHnK7C-24" target="bJrBHo3MrXm5wbYHnK7C-43">
          <mxGeometry relative="1" as="geometry" />
        </mxCell>
        <mxCell id="bJrBHo3MrXm5wbYHnK7C-24" value="Cheer&lt;div&gt;Rider&lt;/div&gt;" style="shape=umlActor;verticalLabelPosition=bottom;verticalAlign=top;html=1;outlineConnect=0;" vertex="1" parent="1">
          <mxGeometry x="1409" y="296" width="30" height="60" as="geometry" />
        </mxCell>
        <mxCell id="bJrBHo3MrXm5wbYHnK7C-41" style="edgeStyle=orthogonalEdgeStyle;rounded=0;orthogonalLoop=1;jettySize=auto;html=1;entryX=0;entryY=0.5;entryDx=0;entryDy=0;" edge="1" parent="1" source="bJrBHo3MrXm5wbYHnK7C-38" target="bJrBHo3MrXm5wbYHnK7C-39">
          <mxGeometry relative="1" as="geometry" />
        </mxCell>
        <mxCell id="bJrBHo3MrXm5wbYHnK7C-38" value="Cheer Leader Request" style="whiteSpace=wrap;html=1;aspect=fixed;" vertex="1" parent="1">
          <mxGeometry x="988" y="450" width="80" height="80" as="geometry" />
        </mxCell>
        <mxCell id="bJrBHo3MrXm5wbYHnK7C-42" style="edgeStyle=orthogonalEdgeStyle;rounded=0;orthogonalLoop=1;jettySize=auto;html=1;entryX=0;entryY=0.5;entryDx=0;entryDy=0;" edge="1" parent="1" source="bJrBHo3MrXm5wbYHnK7C-39" target="bJrBHo3MrXm5wbYHnK7C-40">
          <mxGeometry relative="1" as="geometry" />
        </mxCell>
        <mxCell id="bJrBHo3MrXm5wbYHnK7C-39" value="Accept&lt;div&gt;Cheer Leader with estimated fare&lt;/div&gt;" style="whiteSpace=wrap;html=1;aspect=fixed;" vertex="1" parent="1">
          <mxGeometry x="1120" y="450" width="80" height="80" as="geometry" />
        </mxCell>
        <mxCell id="bJrBHo3MrXm5wbYHnK7C-44" style="edgeStyle=orthogonalEdgeStyle;rounded=0;orthogonalLoop=1;jettySize=auto;html=1;entryX=0;entryY=0.5;entryDx=0;entryDy=0;" edge="1" parent="1" source="bJrBHo3MrXm5wbYHnK7C-40" target="bJrBHo3MrXm5wbYHnK7C-43">
          <mxGeometry relative="1" as="geometry" />
        </mxCell>
        <mxCell id="bJrBHo3MrXm5wbYHnK7C-40" value="Notify&lt;div&gt;Cheer Leader&lt;/div&gt;&lt;div&gt;estimated fare&lt;/div&gt;" style="whiteSpace=wrap;html=1;aspect=fixed;" vertex="1" parent="1">
          <mxGeometry x="1250" y="450" width="80" height="80" as="geometry" />
        </mxCell>
        <mxCell id="bJrBHo3MrXm5wbYHnK7C-117" style="edgeStyle=orthogonalEdgeStyle;rounded=0;orthogonalLoop=1;jettySize=auto;html=1;entryX=0;entryY=0.5;entryDx=0;entryDy=0;" edge="1" parent="1" source="bJrBHo3MrXm5wbYHnK7C-43" target="bJrBHo3MrXm5wbYHnK7C-45">
          <mxGeometry relative="1" as="geometry" />
        </mxCell>
        <mxCell id="bJrBHo3MrXm5wbYHnK7C-43" value="Cheer Leader&lt;div&gt;Accept Request&lt;/div&gt;" style="whiteSpace=wrap;html=1;aspect=fixed;" vertex="1" parent="1">
          <mxGeometry x="1384" y="450" width="80" height="80" as="geometry" />
        </mxCell>
        <mxCell id="bJrBHo3MrXm5wbYHnK7C-48" style="edgeStyle=orthogonalEdgeStyle;rounded=0;orthogonalLoop=1;jettySize=auto;html=1;entryX=0.5;entryY=0;entryDx=0;entryDy=0;" edge="1" parent="1" source="bJrBHo3MrXm5wbYHnK7C-45" target="bJrBHo3MrXm5wbYHnK7C-46">
          <mxGeometry relative="1" as="geometry" />
        </mxCell>
        <mxCell id="bJrBHo3MrXm5wbYHnK7C-45" value="Cheer Leader&lt;div&gt;reach to&amp;nbsp;&lt;/div&gt;&lt;div&gt;location&lt;/div&gt;" style="whiteSpace=wrap;html=1;aspect=fixed;" vertex="1" parent="1">
          <mxGeometry x="1520" y="450" width="80" height="80" as="geometry" />
        </mxCell>
        <mxCell id="bJrBHo3MrXm5wbYHnK7C-58" style="edgeStyle=orthogonalEdgeStyle;rounded=0;orthogonalLoop=1;jettySize=auto;html=1;entryX=1;entryY=0.5;entryDx=0;entryDy=0;" edge="1" parent="1" source="bJrBHo3MrXm5wbYHnK7C-46" target="bJrBHo3MrXm5wbYHnK7C-57">
          <mxGeometry relative="1" as="geometry" />
        </mxCell>
        <mxCell id="bJrBHo3MrXm5wbYHnK7C-46" value="Cheer Leader show time" style="whiteSpace=wrap;html=1;aspect=fixed;" vertex="1" parent="1">
          <mxGeometry x="1520" y="641" width="80" height="80" as="geometry" />
        </mxCell>
        <mxCell id="bJrBHo3MrXm5wbYHnK7C-121" style="edgeStyle=orthogonalEdgeStyle;rounded=0;orthogonalLoop=1;jettySize=auto;html=1;" edge="1" parent="1" source="bJrBHo3MrXm5wbYHnK7C-49" target="bJrBHo3MrXm5wbYHnK7C-120">
          <mxGeometry relative="1" as="geometry" />
        </mxCell>
        <mxCell id="bJrBHo3MrXm5wbYHnK7C-49" value="Calculate actual&lt;div&gt;Payment&lt;/div&gt;" style="whiteSpace=wrap;html=1;aspect=fixed;" vertex="1" parent="1">
          <mxGeometry x="1250" y="641" width="80" height="80" as="geometry" />
        </mxCell>
        <mxCell id="bJrBHo3MrXm5wbYHnK7C-51" value="Cheers Requestor" style="swimlane;whiteSpace=wrap;html=1;" vertex="1" parent="1">
          <mxGeometry x="970" y="400" width="250" height="190" as="geometry" />
        </mxCell>
        <mxCell id="bJrBHo3MrXm5wbYHnK7C-52" value="Cheer Leader" style="swimlane;whiteSpace=wrap;html=1;" vertex="1" parent="1">
          <mxGeometry x="1360" y="400" width="280" height="380" as="geometry" />
        </mxCell>
        <mxCell id="bJrBHo3MrXm5wbYHnK7C-57" value="Cheer Leader&lt;div&gt;Trip Complete&lt;/div&gt;" style="whiteSpace=wrap;html=1;aspect=fixed;" vertex="1" parent="bJrBHo3MrXm5wbYHnK7C-52">
          <mxGeometry x="40" y="241" width="80" height="80" as="geometry" />
        </mxCell>
        <mxCell id="bJrBHo3MrXm5wbYHnK7C-55" style="edgeStyle=orthogonalEdgeStyle;rounded=0;orthogonalLoop=1;jettySize=auto;html=1;entryX=0;entryY=0.5;entryDx=0;entryDy=0;" edge="1" parent="1" source="bJrBHo3MrXm5wbYHnK7C-54" target="bJrBHo3MrXm5wbYHnK7C-38">
          <mxGeometry relative="1" as="geometry" />
        </mxCell>
        <mxCell id="bJrBHo3MrXm5wbYHnK7C-54" value="Cheer&lt;div&gt;Requestor&lt;/div&gt;" style="shape=umlActor;verticalLabelPosition=bottom;verticalAlign=top;html=1;outlineConnect=0;" vertex="1" parent="1">
          <mxGeometry x="900" y="460" width="40" height="60" as="geometry" />
        </mxCell>
        <mxCell id="bJrBHo3MrXm5wbYHnK7C-59" style="edgeStyle=orthogonalEdgeStyle;rounded=0;orthogonalLoop=1;jettySize=auto;html=1;entryX=1;entryY=0.5;entryDx=0;entryDy=0;" edge="1" parent="1" source="bJrBHo3MrXm5wbYHnK7C-57" target="bJrBHo3MrXm5wbYHnK7C-49">
          <mxGeometry relative="1" as="geometry" />
        </mxCell>
        <mxCell id="bJrBHo3MrXm5wbYHnK7C-125" value="websocket&amp;nbsp;&lt;div&gt;over http&lt;/div&gt;" style="edgeStyle=orthogonalEdgeStyle;rounded=0;orthogonalLoop=1;jettySize=auto;html=1;" edge="1" parent="1" source="bJrBHo3MrXm5wbYHnK7C-83" target="bJrBHo3MrXm5wbYHnK7C-122">
          <mxGeometry relative="1" as="geometry" />
        </mxCell>
        <mxCell id="bJrBHo3MrXm5wbYHnK7C-83" value="Cheers&lt;div&gt;Requestor&lt;/div&gt;&lt;div&gt;App&lt;/div&gt;" style="whiteSpace=wrap;html=1;aspect=fixed;" vertex="1" parent="1">
          <mxGeometry x="1885" y="481" width="80" height="80" as="geometry" />
        </mxCell>
        <mxCell id="bJrBHo3MrXm5wbYHnK7C-152" style="edgeStyle=orthogonalEdgeStyle;rounded=0;orthogonalLoop=1;jettySize=auto;html=1;entryX=0;entryY=0.5;entryDx=0;entryDy=0;" edge="1" parent="1" source="bJrBHo3MrXm5wbYHnK7C-85" target="bJrBHo3MrXm5wbYHnK7C-150">
          <mxGeometry relative="1" as="geometry" />
        </mxCell>
        <mxCell id="bJrBHo3MrXm5wbYHnK7C-208" style="edgeStyle=orthogonalEdgeStyle;rounded=0;orthogonalLoop=1;jettySize=auto;html=1;" edge="1" parent="1" source="bJrBHo3MrXm5wbYHnK7C-85" target="bJrBHo3MrXm5wbYHnK7C-207">
          <mxGeometry relative="1" as="geometry" />
        </mxCell>
        <mxCell id="bJrBHo3MrXm5wbYHnK7C-85" value="Speedy&lt;div&gt;Cheers&lt;/div&gt;&lt;div&gt;&lt;br&gt;&lt;/div&gt;" style="shape=umlActor;verticalLabelPosition=bottom;verticalAlign=top;html=1;outlineConnect=0;" vertex="1" parent="1">
          <mxGeometry x="1735" y="884" width="30" height="60" as="geometry" />
        </mxCell>
        <mxCell id="bJrBHo3MrXm5wbYHnK7C-132" value="1" style="edgeStyle=orthogonalEdgeStyle;rounded=0;orthogonalLoop=1;jettySize=auto;html=1;entryX=0;entryY=0.5;entryDx=0;entryDy=0;" edge="1" parent="1" source="bJrBHo3MrXm5wbYHnK7C-87" target="bJrBHo3MrXm5wbYHnK7C-83">
          <mxGeometry relative="1" as="geometry" />
        </mxCell>
        <mxCell id="bJrBHo3MrXm5wbYHnK7C-209" style="edgeStyle=orthogonalEdgeStyle;rounded=0;orthogonalLoop=1;jettySize=auto;html=1;" edge="1" parent="1" source="bJrBHo3MrXm5wbYHnK7C-87" target="bJrBHo3MrXm5wbYHnK7C-207">
          <mxGeometry relative="1" as="geometry" />
        </mxCell>
        <mxCell id="bJrBHo3MrXm5wbYHnK7C-87" value="Cheers&lt;div&gt;Requestor&lt;/div&gt;" style="shape=umlActor;verticalLabelPosition=bottom;verticalAlign=top;html=1;outlineConnect=0;" vertex="1" parent="1">
          <mxGeometry x="1735" y="489.5" width="30" height="60" as="geometry" />
        </mxCell>
        <mxCell id="bJrBHo3MrXm5wbYHnK7C-141" style="edgeStyle=orthogonalEdgeStyle;rounded=0;orthogonalLoop=1;jettySize=auto;html=1;" edge="1" parent="1" source="bJrBHo3MrXm5wbYHnK7C-92" target="bJrBHo3MrXm5wbYHnK7C-140">
          <mxGeometry relative="1" as="geometry" />
        </mxCell>
        <mxCell id="bJrBHo3MrXm5wbYHnK7C-92" value="Location&lt;div&gt;Service&lt;/div&gt;" style="whiteSpace=wrap;html=1;aspect=fixed;" vertex="1" parent="1">
          <mxGeometry x="2493" y="321" width="80" height="80" as="geometry" />
        </mxCell>
        <mxCell id="bJrBHo3MrXm5wbYHnK7C-176" value="10. payment processor" style="edgeStyle=orthogonalEdgeStyle;rounded=0;orthogonalLoop=1;jettySize=auto;html=1;entryX=0.5;entryY=0;entryDx=0;entryDy=0;" edge="1" parent="1" source="bJrBHo3MrXm5wbYHnK7C-93" target="bJrBHo3MrXm5wbYHnK7C-175">
          <mxGeometry relative="1" as="geometry" />
        </mxCell>
        <mxCell id="bJrBHo3MrXm5wbYHnK7C-188" value="13. Notify" style="edgeStyle=orthogonalEdgeStyle;rounded=0;orthogonalLoop=1;jettySize=auto;html=1;" edge="1" parent="1" source="bJrBHo3MrXm5wbYHnK7C-93" target="bJrBHo3MrXm5wbYHnK7C-189">
          <mxGeometry relative="1" as="geometry">
            <mxPoint x="2855" y="360" as="targetPoint" />
          </mxGeometry>
        </mxCell>
        <mxCell id="bJrBHo3MrXm5wbYHnK7C-93" value="Billing Service" style="whiteSpace=wrap;html=1;aspect=fixed;" vertex="1" parent="1">
          <mxGeometry x="2815" y="770" width="80" height="80" as="geometry" />
        </mxCell>
        <mxCell id="bJrBHo3MrXm5wbYHnK7C-213" style="edgeStyle=orthogonalEdgeStyle;rounded=0;orthogonalLoop=1;jettySize=auto;html=1;" edge="1" parent="1" source="bJrBHo3MrXm5wbYHnK7C-94" target="bJrBHo3MrXm5wbYHnK7C-212">
          <mxGeometry relative="1" as="geometry" />
        </mxCell>
        <mxCell id="bJrBHo3MrXm5wbYHnK7C-94" value="Pricing&lt;div&gt;Service&lt;/div&gt;" style="whiteSpace=wrap;html=1;aspect=fixed;" vertex="1" parent="1">
          <mxGeometry x="2545" y="600" width="80" height="80" as="geometry" />
        </mxCell>
        <mxCell id="bJrBHo3MrXm5wbYHnK7C-96" value="Cheer Leader&amp;nbsp;&lt;div&gt;Available Service&lt;/div&gt;" style="whiteSpace=wrap;html=1;aspect=fixed;" vertex="1" parent="1">
          <mxGeometry x="2493" y="410" width="80" height="80" as="geometry" />
        </mxCell>
        <mxCell id="bJrBHo3MrXm5wbYHnK7C-120" value="complete payment&lt;div&gt;&amp;amp;&lt;/div&gt;&lt;div&gt;Nofity requestor&lt;/div&gt;" style="whiteSpace=wrap;html=1;aspect=fixed;" vertex="1" parent="1">
          <mxGeometry x="1121" y="641" width="80" height="80" as="geometry" />
        </mxCell>
        <mxCell id="bJrBHo3MrXm5wbYHnK7C-145" value="1" style="edgeStyle=orthogonalEdgeStyle;rounded=0;orthogonalLoop=1;jettySize=auto;html=1;entryX=0;entryY=0.5;entryDx=0;entryDy=0;" edge="1" parent="1" source="bJrBHo3MrXm5wbYHnK7C-122" target="bJrBHo3MrXm5wbYHnK7C-144">
          <mxGeometry relative="1" as="geometry" />
        </mxCell>
        <mxCell id="bJrBHo3MrXm5wbYHnK7C-182" value="12" style="edgeStyle=orthogonalEdgeStyle;rounded=0;orthogonalLoop=1;jettySize=auto;html=1;entryX=0.5;entryY=0;entryDx=0;entryDy=0;" edge="1" parent="1" source="bJrBHo3MrXm5wbYHnK7C-122" target="bJrBHo3MrXm5wbYHnK7C-93">
          <mxGeometry relative="1" as="geometry" />
        </mxCell>
        <mxCell id="bJrBHo3MrXm5wbYHnK7C-186" value="12. Payment status" style="edgeLabel;html=1;align=center;verticalAlign=middle;resizable=0;points=[];" vertex="1" connectable="0" parent="bJrBHo3MrXm5wbYHnK7C-182">
          <mxGeometry x="0.0816" y="-1" relative="1" as="geometry">
            <mxPoint x="79" y="-1" as="offset" />
          </mxGeometry>
        </mxCell>
        <mxCell id="bJrBHo3MrXm5wbYHnK7C-122" value="API Gateway" style="sketch=0;outlineConnect=0;fontColor=#232F3E;gradientColor=none;strokeColor=#ffffff;fillColor=#232F3E;dashed=0;verticalLabelPosition=middle;verticalAlign=bottom;align=center;html=1;whiteSpace=wrap;fontSize=10;fontStyle=1;spacing=3;shape=mxgraph.aws4.productIcon;prIcon=mxgraph.aws4.api_gateway;" vertex="1" parent="1">
          <mxGeometry x="2045" y="685" width="80" height="110" as="geometry" />
        </mxCell>
        <mxCell id="bJrBHo3MrXm5wbYHnK7C-137" value="3" style="edgeStyle=orthogonalEdgeStyle;rounded=0;orthogonalLoop=1;jettySize=auto;html=1;entryX=0;entryY=0.5;entryDx=0;entryDy=0;" edge="1" parent="1" source="bJrBHo3MrXm5wbYHnK7C-134" target="bJrBHo3MrXm5wbYHnK7C-92">
          <mxGeometry relative="1" as="geometry" />
        </mxCell>
        <mxCell id="bJrBHo3MrXm5wbYHnK7C-138" value="4" style="edgeStyle=orthogonalEdgeStyle;rounded=0;orthogonalLoop=1;jettySize=auto;html=1;entryX=0;entryY=0.5;entryDx=0;entryDy=0;" edge="1" parent="1" source="bJrBHo3MrXm5wbYHnK7C-134" target="bJrBHo3MrXm5wbYHnK7C-96">
          <mxGeometry relative="1" as="geometry" />
        </mxCell>
        <mxCell id="bJrBHo3MrXm5wbYHnK7C-165" value="5" style="edgeStyle=orthogonalEdgeStyle;rounded=0;orthogonalLoop=1;jettySize=auto;html=1;entryX=0;entryY=0.5;entryDx=0;entryDy=0;" edge="1" parent="1" source="bJrBHo3MrXm5wbYHnK7C-134" target="bJrBHo3MrXm5wbYHnK7C-94">
          <mxGeometry relative="1" as="geometry">
            <Array as="points">
              <mxPoint x="2445" y="521" />
              <mxPoint x="2445" y="640" />
            </Array>
          </mxGeometry>
        </mxCell>
        <mxCell id="bJrBHo3MrXm5wbYHnK7C-134" value="Find Cheer&lt;div&gt;Leader&lt;/div&gt;" style="sketch=0;outlineConnect=0;fontColor=#232F3E;gradientColor=none;fillColor=#ED7100;strokeColor=none;dashed=0;verticalLabelPosition=bottom;verticalAlign=top;align=center;html=1;fontSize=12;fontStyle=0;aspect=fixed;pointerEvents=1;shape=mxgraph.aws4.lambda_function;" vertex="1" parent="1">
          <mxGeometry x="2343" y="497" width="48" height="48" as="geometry" />
        </mxCell>
        <mxCell id="bJrBHo3MrXm5wbYHnK7C-140" value="Amazon DB - Geo spatial Information" style="sketch=0;outlineConnect=0;fontColor=#232F3E;gradientColor=none;strokeColor=#ffffff;fillColor=#232F3E;dashed=0;verticalLabelPosition=middle;verticalAlign=bottom;align=center;html=1;whiteSpace=wrap;fontSize=10;fontStyle=1;spacing=3;shape=mxgraph.aws4.productIcon;prIcon=mxgraph.aws4.dynamodb;" vertex="1" parent="1">
          <mxGeometry x="2685" y="306" width="80" height="110" as="geometry" />
        </mxCell>
        <mxCell id="bJrBHo3MrXm5wbYHnK7C-148" value="6. Cheer request&amp;nbsp;&lt;div&gt;assigned to a&amp;nbsp;&lt;/div&gt;&lt;div&gt;cheer leader&lt;/div&gt;" style="edgeStyle=orthogonalEdgeStyle;rounded=0;orthogonalLoop=1;jettySize=auto;html=1;" edge="1" parent="1" source="bJrBHo3MrXm5wbYHnK7C-134" target="bJrBHo3MrXm5wbYHnK7C-143">
          <mxGeometry relative="1" as="geometry">
            <mxPoint x="2573" y="521" as="sourcePoint" />
          </mxGeometry>
        </mxCell>
        <mxCell id="bJrBHo3MrXm5wbYHnK7C-143" value="SQS - Task queue" style="sketch=0;outlineConnect=0;fontColor=#232F3E;gradientColor=none;strokeColor=#ffffff;fillColor=#232F3E;dashed=0;verticalLabelPosition=middle;verticalAlign=bottom;align=center;html=1;whiteSpace=wrap;fontSize=10;fontStyle=1;spacing=3;shape=mxgraph.aws4.productIcon;prIcon=mxgraph.aws4.sqs;" vertex="1" parent="1">
          <mxGeometry x="2685" y="460" width="80" height="119" as="geometry" />
        </mxCell>
        <mxCell id="bJrBHo3MrXm5wbYHnK7C-201" style="edgeStyle=orthogonalEdgeStyle;rounded=0;orthogonalLoop=1;jettySize=auto;html=1;" edge="1" parent="1" source="bJrBHo3MrXm5wbYHnK7C-144" target="bJrBHo3MrXm5wbYHnK7C-134">
          <mxGeometry relative="1" as="geometry" />
        </mxCell>
        <mxCell id="bJrBHo3MrXm5wbYHnK7C-144" value="Cheers&lt;div&gt;Requestor API&lt;/div&gt;" style="whiteSpace=wrap;html=1;aspect=fixed;" vertex="1" parent="1">
          <mxGeometry x="2195" y="481" width="80" height="80" as="geometry" />
        </mxCell>
        <mxCell id="bJrBHo3MrXm5wbYHnK7C-154" value="websocker&lt;div&gt;over http&lt;/div&gt;" style="edgeStyle=orthogonalEdgeStyle;rounded=0;orthogonalLoop=1;jettySize=auto;html=1;" edge="1" parent="1" source="bJrBHo3MrXm5wbYHnK7C-150" target="bJrBHo3MrXm5wbYHnK7C-122">
          <mxGeometry x="-0.4883" y="4" relative="1" as="geometry">
            <mxPoint x="2085" y="810" as="targetPoint" />
            <mxPoint as="offset" />
          </mxGeometry>
        </mxCell>
        <mxCell id="bJrBHo3MrXm5wbYHnK7C-150" value="Cheer Leader App" style="whiteSpace=wrap;html=1;aspect=fixed;" vertex="1" parent="1">
          <mxGeometry x="1875" y="874" width="80" height="80" as="geometry" />
        </mxCell>
        <mxCell id="bJrBHo3MrXm5wbYHnK7C-163" style="edgeStyle=orthogonalEdgeStyle;rounded=0;orthogonalLoop=1;jettySize=auto;html=1;entryX=0.005;entryY=0.63;entryDx=0;entryDy=0;entryPerimeter=0;" edge="1" parent="1" target="bJrBHo3MrXm5wbYHnK7C-216">
          <mxGeometry relative="1" as="geometry">
            <mxPoint x="2125" y="755" as="sourcePoint" />
            <mxPoint x="2195" y="960" as="targetPoint" />
          </mxGeometry>
        </mxCell>
        <mxCell id="bJrBHo3MrXm5wbYHnK7C-164" value="7. Accept or reject the request" style="edgeStyle=orthogonalEdgeStyle;rounded=0;orthogonalLoop=1;jettySize=auto;html=1;" edge="1" parent="1" target="bJrBHo3MrXm5wbYHnK7C-143">
          <mxGeometry x="-0.2841" y="5" relative="1" as="geometry">
            <mxPoint x="2275" y="960" as="sourcePoint" />
            <mxPoint as="offset" />
          </mxGeometry>
        </mxCell>
        <mxCell id="bJrBHo3MrXm5wbYHnK7C-173" value="8" style="edgeStyle=orthogonalEdgeStyle;rounded=0;orthogonalLoop=1;jettySize=auto;html=1;exitX=0.995;exitY=0.63;exitDx=0;exitDy=0;exitPerimeter=0;" edge="1" parent="1" source="bJrBHo3MrXm5wbYHnK7C-216" target="bJrBHo3MrXm5wbYHnK7C-172">
          <mxGeometry x="0.274" y="1" relative="1" as="geometry">
            <mxPoint x="2275" y="940" as="sourcePoint" />
            <mxPoint x="2405" y="920" as="targetPoint" />
            <Array as="points">
              <mxPoint x="2265" y="939" />
              <mxPoint x="2406" y="939" />
              <mxPoint x="2406" y="834" />
            </Array>
            <mxPoint as="offset" />
          </mxGeometry>
        </mxCell>
        <mxCell id="bJrBHo3MrXm5wbYHnK7C-167" value="TripId&lt;div&gt;&amp;nbsp; &amp;nbsp; &amp;nbsp; &amp;nbsp;|- Req Id&lt;/div&gt;&lt;div&gt;&amp;nbsp; &amp;nbsp; &amp;nbsp; &amp;nbsp; &amp;nbsp; &amp;nbsp;|- Leader Id&lt;/div&gt;" style="shape=cylinder3;whiteSpace=wrap;html=1;boundedLbl=1;backgroundOutline=1;size=15;" vertex="1" parent="1">
          <mxGeometry x="2305" y="590" width="100" height="120" as="geometry" />
        </mxCell>
        <mxCell id="bJrBHo3MrXm5wbYHnK7C-168" style="edgeStyle=orthogonalEdgeStyle;rounded=0;orthogonalLoop=1;jettySize=auto;html=1;" edge="1" parent="1" source="bJrBHo3MrXm5wbYHnK7C-144" target="bJrBHo3MrXm5wbYHnK7C-203">
          <mxGeometry relative="1" as="geometry" />
        </mxCell>
        <mxCell id="bJrBHo3MrXm5wbYHnK7C-171" style="edgeStyle=orthogonalEdgeStyle;rounded=0;orthogonalLoop=1;jettySize=auto;html=1;exitX=0.5;exitY=0;exitDx=0;exitDy=0;" edge="1" parent="1" target="bJrBHo3MrXm5wbYHnK7C-203">
          <mxGeometry relative="1" as="geometry">
            <mxPoint x="2235" y="920" as="sourcePoint" />
            <mxPoint x="2265" y="360" as="targetPoint" />
          </mxGeometry>
        </mxCell>
        <mxCell id="bJrBHo3MrXm5wbYHnK7C-183" style="edgeStyle=orthogonalEdgeStyle;rounded=0;orthogonalLoop=1;jettySize=auto;html=1;entryX=0;entryY=0.5;entryDx=0;entryDy=0;" edge="1" parent="1" source="bJrBHo3MrXm5wbYHnK7C-172" target="bJrBHo3MrXm5wbYHnK7C-94">
          <mxGeometry relative="1" as="geometry" />
        </mxCell>
        <mxCell id="bJrBHo3MrXm5wbYHnK7C-184" value="9.1 calculate actual price" style="edgeLabel;html=1;align=center;verticalAlign=middle;resizable=0;points=[];" vertex="1" connectable="0" parent="bJrBHo3MrXm5wbYHnK7C-183">
          <mxGeometry x="0.1176" y="-2" relative="1" as="geometry">
            <mxPoint as="offset" />
          </mxGeometry>
        </mxCell>
        <mxCell id="bJrBHo3MrXm5wbYHnK7C-172" value="&lt;span style=&quot;background-color: initial;&quot;&gt;calculate price&lt;/span&gt;" style="sketch=0;outlineConnect=0;fontColor=#232F3E;gradientColor=none;fillColor=#ED7100;strokeColor=none;dashed=0;verticalLabelPosition=bottom;verticalAlign=top;align=center;html=1;fontSize=12;fontStyle=0;aspect=fixed;pointerEvents=1;shape=mxgraph.aws4.lambda_function;" vertex="1" parent="1">
          <mxGeometry x="2455" y="810" width="48" height="48" as="geometry" />
        </mxCell>
        <mxCell id="bJrBHo3MrXm5wbYHnK7C-180" value="11. Payment status" style="edgeStyle=orthogonalEdgeStyle;rounded=0;orthogonalLoop=1;jettySize=auto;html=1;exitX=0.5;exitY=1;exitDx=0;exitDy=0;" edge="1" parent="1" source="bJrBHo3MrXm5wbYHnK7C-175" target="bJrBHo3MrXm5wbYHnK7C-122">
          <mxGeometry relative="1" as="geometry">
            <mxPoint x="2085" y="810" as="targetPoint" />
          </mxGeometry>
        </mxCell>
        <mxCell id="bJrBHo3MrXm5wbYHnK7C-175" value="Stripe" style="whiteSpace=wrap;html=1;aspect=fixed;" vertex="1" parent="1">
          <mxGeometry x="2905" y="960" width="80" height="80" as="geometry" />
        </mxCell>
        <mxCell id="bJrBHo3MrXm5wbYHnK7C-185" value="9.2 Request payment" style="edgeStyle=orthogonalEdgeStyle;rounded=0;orthogonalLoop=1;jettySize=auto;html=1;entryX=0.5;entryY=1;entryDx=0;entryDy=0;exitX=0.995;exitY=0.63;exitDx=0;exitDy=0;exitPerimeter=0;" edge="1" parent="1" source="bJrBHo3MrXm5wbYHnK7C-216" target="bJrBHo3MrXm5wbYHnK7C-93">
          <mxGeometry x="0.4694" y="5" relative="1" as="geometry">
            <mxPoint x="2275" y="960" as="sourcePoint" />
            <mxPoint as="offset" />
          </mxGeometry>
        </mxCell>
        <mxCell id="bJrBHo3MrXm5wbYHnK7C-193" style="edgeStyle=orthogonalEdgeStyle;rounded=0;orthogonalLoop=1;jettySize=auto;html=1;" edge="1" parent="1" source="bJrBHo3MrXm5wbYHnK7C-189" target="bJrBHo3MrXm5wbYHnK7C-192">
          <mxGeometry relative="1" as="geometry" />
        </mxCell>
        <mxCell id="bJrBHo3MrXm5wbYHnK7C-197" style="edgeStyle=orthogonalEdgeStyle;rounded=0;orthogonalLoop=1;jettySize=auto;html=1;" edge="1" parent="1" source="bJrBHo3MrXm5wbYHnK7C-189" target="bJrBHo3MrXm5wbYHnK7C-196">
          <mxGeometry relative="1" as="geometry" />
        </mxCell>
        <mxCell id="bJrBHo3MrXm5wbYHnK7C-211" style="edgeStyle=orthogonalEdgeStyle;rounded=0;orthogonalLoop=1;jettySize=auto;html=1;" edge="1" parent="1" source="bJrBHo3MrXm5wbYHnK7C-189" target="bJrBHo3MrXm5wbYHnK7C-210">
          <mxGeometry relative="1" as="geometry" />
        </mxCell>
        <mxCell id="bJrBHo3MrXm5wbYHnK7C-189" value="Notification Service" style="sketch=0;outlineConnect=0;fontColor=#232F3E;gradientColor=none;fillColor=#ED7100;strokeColor=none;dashed=0;verticalLabelPosition=bottom;verticalAlign=top;align=center;html=1;fontSize=12;fontStyle=0;aspect=fixed;pointerEvents=1;shape=mxgraph.aws4.lambda_function;" vertex="1" parent="1">
          <mxGeometry x="2831" y="200" width="48" height="48" as="geometry" />
        </mxCell>
        <mxCell id="bJrBHo3MrXm5wbYHnK7C-190" value="Amazon S3" style="sketch=0;outlineConnect=0;fontColor=#232F3E;gradientColor=none;strokeColor=#ffffff;fillColor=#232F3E;dashed=0;verticalLabelPosition=middle;verticalAlign=bottom;align=center;html=1;whiteSpace=wrap;fontSize=10;fontStyle=1;spacing=3;shape=mxgraph.aws4.productIcon;prIcon=mxgraph.aws4.s3;" vertex="1" parent="1">
          <mxGeometry x="2995" y="374" width="80" height="100" as="geometry" />
        </mxCell>
        <mxCell id="bJrBHo3MrXm5wbYHnK7C-194" style="edgeStyle=orthogonalEdgeStyle;rounded=0;orthogonalLoop=1;jettySize=auto;html=1;" edge="1" parent="1" source="bJrBHo3MrXm5wbYHnK7C-192" target="bJrBHo3MrXm5wbYHnK7C-190">
          <mxGeometry relative="1" as="geometry" />
        </mxCell>
        <mxCell id="bJrBHo3MrXm5wbYHnK7C-192" value="Generate invoice pdf" style="sketch=0;outlineConnect=0;fontColor=#232F3E;gradientColor=none;fillColor=#ED7100;strokeColor=none;dashed=0;verticalLabelPosition=bottom;verticalAlign=top;align=center;html=1;fontSize=12;fontStyle=0;aspect=fixed;pointerEvents=1;shape=mxgraph.aws4.lambda_function;" vertex="1" parent="1">
          <mxGeometry x="3011" y="273" width="48" height="48" as="geometry" />
        </mxCell>
        <mxCell id="bJrBHo3MrXm5wbYHnK7C-198" value="14.1 Payment completed" style="edgeStyle=orthogonalEdgeStyle;rounded=0;orthogonalLoop=1;jettySize=auto;html=1;" edge="1" parent="1" source="bJrBHo3MrXm5wbYHnK7C-196">
          <mxGeometry relative="1" as="geometry">
            <mxPoint x="2235" y="480" as="targetPoint" />
          </mxGeometry>
        </mxCell>
        <mxCell id="bJrBHo3MrXm5wbYHnK7C-199" value="14. 2 payment received" style="edgeStyle=orthogonalEdgeStyle;rounded=0;orthogonalLoop=1;jettySize=auto;html=1;" edge="1" parent="1" source="bJrBHo3MrXm5wbYHnK7C-196">
          <mxGeometry x="-0.7031" relative="1" as="geometry">
            <mxPoint x="2225" y="1000" as="targetPoint" />
            <Array as="points">
              <mxPoint x="2425" y="223" />
              <mxPoint x="2425" y="1020" />
              <mxPoint x="2225" y="1020" />
              <mxPoint x="2225" y="1000" />
            </Array>
            <mxPoint as="offset" />
          </mxGeometry>
        </mxCell>
        <mxCell id="bJrBHo3MrXm5wbYHnK7C-196" value="Amazon SQS" style="sketch=0;outlineConnect=0;fontColor=#232F3E;gradientColor=none;strokeColor=#ffffff;fillColor=#232F3E;dashed=0;verticalLabelPosition=middle;verticalAlign=bottom;align=center;html=1;whiteSpace=wrap;fontSize=10;fontStyle=1;spacing=3;shape=mxgraph.aws4.productIcon;prIcon=mxgraph.aws4.sqs;" vertex="1" parent="1">
          <mxGeometry x="2545" y="173" width="80" height="100" as="geometry" />
        </mxCell>
        <mxCell id="bJrBHo3MrXm5wbYHnK7C-203" value="Amazon ElastiCache for Redis" style="sketch=0;outlineConnect=0;fontColor=#232F3E;gradientColor=none;strokeColor=#ffffff;fillColor=#232F3E;dashed=0;verticalLabelPosition=middle;verticalAlign=bottom;align=center;html=1;whiteSpace=wrap;fontSize=10;fontStyle=1;spacing=3;shape=mxgraph.aws4.productIcon;prIcon=mxgraph.aws4.elasticache_for_redis;" vertex="1" parent="1">
          <mxGeometry x="2195" y="590" width="80" height="120" as="geometry" />
        </mxCell>
        <mxCell id="bJrBHo3MrXm5wbYHnK7C-204" style="edgeStyle=orthogonalEdgeStyle;rounded=0;orthogonalLoop=1;jettySize=auto;html=1;entryX=0;entryY=0.5;entryDx=0;entryDy=0;entryPerimeter=0;" edge="1" parent="1" source="bJrBHo3MrXm5wbYHnK7C-203" target="bJrBHo3MrXm5wbYHnK7C-167">
          <mxGeometry relative="1" as="geometry" />
        </mxCell>
        <mxCell id="bJrBHo3MrXm5wbYHnK7C-207" value="Amazon Cognito" style="sketch=0;outlineConnect=0;fontColor=#232F3E;gradientColor=none;strokeColor=#ffffff;fillColor=#232F3E;dashed=0;verticalLabelPosition=middle;verticalAlign=bottom;align=center;html=1;whiteSpace=wrap;fontSize=10;fontStyle=1;spacing=3;shape=mxgraph.aws4.productIcon;prIcon=mxgraph.aws4.cognito;" vertex="1" parent="1">
          <mxGeometry x="1710" y="680" width="80" height="110" as="geometry" />
        </mxCell>
        <mxCell id="bJrBHo3MrXm5wbYHnK7C-210" value="Send Email" style="sketch=0;outlineConnect=0;fontColor=#232F3E;gradientColor=none;fillColor=#ED7100;strokeColor=none;dashed=0;verticalLabelPosition=bottom;verticalAlign=top;align=center;html=1;fontSize=12;fontStyle=0;aspect=fixed;pointerEvents=1;shape=mxgraph.aws4.lambda_function;" vertex="1" parent="1">
          <mxGeometry x="2831" y="80" width="48" height="48" as="geometry" />
        </mxCell>
        <mxCell id="bJrBHo3MrXm5wbYHnK7C-215" style="edgeStyle=orthogonalEdgeStyle;rounded=0;orthogonalLoop=1;jettySize=auto;html=1;entryX=1;entryY=0.25;entryDx=0;entryDy=0;" edge="1" parent="1" source="bJrBHo3MrXm5wbYHnK7C-212" target="bJrBHo3MrXm5wbYHnK7C-144">
          <mxGeometry relative="1" as="geometry">
            <Array as="points">
              <mxPoint x="2945" y="640" />
              <mxPoint x="2945" y="501" />
            </Array>
          </mxGeometry>
        </mxCell>
        <mxCell id="bJrBHo3MrXm5wbYHnK7C-212" value="SQS Billing Queue" style="sketch=0;outlineConnect=0;fontColor=#232F3E;gradientColor=none;strokeColor=#ffffff;fillColor=#232F3E;dashed=0;verticalLabelPosition=middle;verticalAlign=bottom;align=center;html=1;whiteSpace=wrap;fontSize=10;fontStyle=1;spacing=3;shape=mxgraph.aws4.productIcon;prIcon=mxgraph.aws4.sqs;" vertex="1" parent="1">
          <mxGeometry x="2995" y="580" width="80" height="120" as="geometry" />
        </mxCell>
        <mxCell id="bJrBHo3MrXm5wbYHnK7C-216" value="&lt;div&gt;&lt;br&gt;&lt;/div&gt;&lt;div&gt;&lt;br&gt;&lt;/div&gt;&lt;div&gt;&lt;br&gt;&lt;/div&gt;&lt;div&gt;&lt;br&gt;&lt;/div&gt;&lt;div&gt;&lt;br&gt;&lt;/div&gt;&lt;div&gt;&lt;br&gt;&lt;/div&gt;&lt;div&gt;&lt;br&gt;&lt;/div&gt;&lt;div&gt;Cheer Leader&lt;/div&gt;API" style="aspect=fixed;sketch=0;html=1;dashed=0;whitespace=wrap;fillColor=#2875E2;strokeColor=#ffffff;points=[[0.005,0.63,0],[0.1,0.2,0],[0.9,0.2,0],[0.5,0,0],[0.995,0.63,0],[0.72,0.99,0],[0.5,1,0],[0.28,0.99,0]];shape=mxgraph.kubernetes.icon2;prIcon=api" vertex="1" parent="1">
          <mxGeometry x="2205" y="910" width="60.42" height="58" as="geometry" />
        </mxCell>
      </root>
    </mxGraphModel>
  </diagram>
</mxfile>
